<svg width="43" height="49" viewBox="0 0 43 49" fill="none" xmlns="http://www.w3.org/2000/svg">
<path d="M37.8959 18.457L37.8694 18.4275C37.8672 18.4259 37.8655 18.4237 37.8645 18.4211L21.2924 0L4.72046 18.4206C4.71855 18.4228 4.71556 18.427 4.71556 18.427L4.68821 18.4565C2.15414 21.289 0.544563 24.9819 0.115361 28.948C-0.31384 32.9142 0.461966 36.926 2.31944 40.3458C4.17693 43.7656 7.00948 46.3972 10.3668 47.8219C13.7242 49.2466 17.4137 49.3832 20.8487 48.2094C21.1378 48.1112 21.4468 48.1112 21.7359 48.2094C25.1707 49.3827 28.8599 49.2462 32.2171 47.8212C35.5742 46.3963 38.4065 43.7649 40.2638 40.3453C42.1212 36.9258 42.8971 32.9142 42.4681 28.9483C42.039 24.9824 40.4297 21.2895 37.8959 18.457ZM10.6132 30.6042C10.5326 30.6939 10.4686 30.8004 10.4249 30.9174C10.3813 31.0345 10.3588 31.16 10.3588 31.2868C10.3883 34.538 11.2149 37.7185 12.7497 40.4864C12.7846 40.5492 12.8007 40.6227 12.7957 40.6962C12.7908 40.7697 12.765 40.8396 12.7222 40.896C12.6793 40.9523 12.6215 40.9921 12.557 41.0097C12.4926 41.0273 12.4248 41.0218 12.3633 40.994C11.2095 40.4545 10.1614 39.6703 9.27747 38.6854C7.46603 36.6715 6.44767 33.9407 6.44602 31.093C6.44438 28.2452 7.45959 25.513 9.26871 23.4967L21.2924 10.133L33.3154 23.4967C35.1249 25.5128 36.1404 28.245 36.1387 31.093C36.1372 33.9407 35.1187 36.6715 33.3071 38.6854C32.4231 39.6703 31.3751 40.4545 30.2215 40.994C30.1599 41.0218 30.092 41.0273 30.0276 41.0097C29.9632 40.9921 29.9054 40.9521 29.8624 40.896C29.8196 40.8396 29.7937 40.7697 29.7888 40.6959C29.7839 40.6224 29.7999 40.5489 29.8348 40.4861C31.3699 37.7185 32.197 34.538 32.2269 31.2868C32.2269 31.16 32.2042 31.0345 32.1604 30.9172C32.1165 30.7999 32.0523 30.6936 31.9714 30.6039L26.2844 23.899C26.2277 23.8464 26.1565 23.8176 26.0827 23.8176C26.0091 23.8176 25.9376 23.8464 25.8811 23.899C25.8244 23.9513 25.7863 24.0243 25.773 24.1049C25.7598 24.1856 25.7724 24.2686 25.8088 24.3399C28.0175 28.7827 26.1182 35.1642 22.9508 38.6854L22.9341 38.7039C22.497 39.1846 21.9068 39.4541 21.2919 39.4539C20.677 39.4536 20.087 39.1837 19.6501 38.7027L19.6347 38.6854C16.4662 35.1642 14.5679 28.7834 16.777 24.3409C16.8133 24.2695 16.826 24.1865 16.8128 24.1059C16.7996 24.0252 16.7613 23.9522 16.7047 23.8999C16.6481 23.8473 16.5768 23.8186 16.5031 23.8186C16.4293 23.8186 16.358 23.8473 16.3014 23.8999L10.6132 30.6042Z" fill="#6975E3"/>
</svg>
